<svg xmlns="http://www.w3.org/2000/svg" viewBox="95 44 1778 1566" width="1778" height="1566" role="img">
<title>PitchKind (working title) logo, for dark surfaces</title>
<!-- WORKING TITLE asset. Not approved for app use (see AI-HANDOFF-LOG). Palette = APP-UI-DESIGN-GUIDELINES v1.2 tokens: green-950 #064526, green-900 #0B5D35, green-500 #29A64D, white. Transparent background. -->
<g id="mark">
<path fill="#29A64D" d="M950.5 296.1c-17.9 3.3-35.7 6.7-53.5 9.9c-51.1 9.2-102.2 18.4-153.3 27.6c-54.6 9.8-109.3 19.6-164 29.5c-15.6 2.7-31.1 5.6-46.7 8.4c-1.5 .2-2.9 .4-5 .8c0-2.1 0-3.8 0-5.6c0-56.7 0-113.3 0-170c0-43.1 31.1-81.7 73.3-90.5c6.4-1.4 13.1-2.1 19.7-2.1c206-.1 412 0 618-.2c43.9 0 83 14 118 39.7c46.7 34.1 77.7 80.2 99.9 132.8c19.3 45.9 29.1 93.9 31.4 143.6c2.8 62.8-5.9 123.8-28.3 182.6c-17.4 45.6-42.4 86.3-78.1 119.9c-33.6 31.6-72.7 52.3-119 58.2c-6.2 .8-12.6 1.2-18.9 1.2c-99.8 .1-199.6 .1-299.5 .1c-2 0-3.9 0-6.5 0c0 2.1 0 3.8 0 5.6c0 62 .1 124 0 186c0 49.8-41.9 91.5-91.8 91.5c-75.2 0-150.3-.3-225.5 .1c-45.4 .2-86.2-35.2-91.8-81.1c-.6-4.3-.9-8.6-.9-12.9c0-69.3 0-138.7 0-208c0-1.8 0-3.6 0-5.8c16.3-2.8 32.3-5.6 48.3-8.4c48.8-8.5 97.7-17 146.5-25.5c47.1-8.2 94.1-16.3 141.2-24.5c50.8-8.8 101.6-17.7 152.4-26.5c9.2-1.6 18.4-3.1 28.4-4.6c2.6 .4 4.6 .4 6.1 1.1c18.9 9.3 38.9 15.6 59.4 19.4c15.9 2.9 32.1 4.7 48.3 5.3c12.5 .5 25-1.6 37.6-2.7c19-1.7 36.9-7.9 54.8-13.8c11.1-3.6 21.6-9.3 32-14.8c27.9-14.8 51.6-34.9 72.1-58.9c18.3-21.5 32.6-45.4 42.7-71.9c7.7-20.2 13.1-40.8 15.4-62.4c1.8-17.6 2.1-35.1 .8-52.7c-.4-4.3-.4-8.7-1.4-12.8c-3.3-14-6.8-27.9-10.5-41.8c-4.9-18.1-13.2-34.8-22.8-50.8c-14.3-23.8-32.2-44.6-53.3-62.7c-14.5-12.4-30-23.1-46.9-31.8c-23.2-11.9-47.2-21.5-73.2-24.7c-15.8-2-31.6-3.7-47.4-4.7c-7.3-.5-14.8 .9-22.2 1.8c-12.3 1.6-24.8 2.5-36.7 5.5c-23.1 5.8-45.3 14.4-66 26.5c-28.8 16.9-53.8 38.1-74.1 64.8c-2.8 3.6-6 6.9-9 10.3z"/>
<path fill="#064526" d="M950.4 296.6c3.1-3.9 6.3-7.2 9.1-10.8c20.3-26.7 45.3-47.9 74.1-64.8c20.7-12.1 42.9-20.7 66-26.5c11.9-3 24.4-3.9 36.7-5.5c7.4-.9 14.9-2.3 22.2-1.8c15.8 1 31.6 2.7 47.4 4.7c26 3.2 50 12.8 73.2 24.7c16.9 8.7 32.4 19.4 46.9 31.8c21.1 18.1 39 38.9 53.3 62.7c9.6 16 17.9 32.7 22.8 50.8c3.7 13.9 7.2 27.8 10.5 41.8c1 4.1 1 8.5 1.4 12.8c1.3 17.6 1 35.1-.8 52.7c-2.3 21.6-7.7 42.2-15.4 62.4c-10.1 26.5-24.4 50.4-42.7 71.9c-20.5 24-44.2 44.1-72.1 58.9c-10.4 5.5-20.9 11.2-32 14.8c-17.9 5.9-35.8 12.1-54.8 13.8c-12.6 1.1-25.1 3.2-37.6 2.7c-16.2-.6-32.4-2.4-48.3-5.3c-20.5-3.8-40.5-10.1-59.4-19.4c-1.5-.7-3.5-.7-5.7-1.1c-.8-.6-1.1-1.5-1.6-1.9c-16.7-9.6-33.4-19.4-47.7-32.5c-11.2-10.3-21.6-21.5-32.7-32.9c-16.5-20.3-28.5-42.5-39-65.6c-9.3-24.2-15.7-49-17.3-75.8c.1-3.9-.1-6.9 0-9.9c.1-11.6-.3-23.2 .6-34.7c.7-10 2.9-19.9 4.4-29.8c3.2-10.5 6-21.1 9.6-31.3c6.3-17.9 14.9-34.7 25.3-50.6c1.3-1.9 2.4-3.9 3.6-6.3zM1149.3 418.6c1.8-.2 4 .2 5.5-.6c25.4-13.9 50.7-27.9 76-42.1c1.5-.9 3.1-3.5 3.1-5.3c.2-26.4 .1-52.9 .2-79.4c0-2.9-1-4.4-3.5-5.8c-24.9-13.2-49.7-26.4-74.4-39.9c-3.7-2-6.4-1.7-9.5 .7c-22.6 17.9-45.3 35.6-67.8 53.6c-1.6 1.3-2.9 4.1-2.9 6.1c.6 23.8 1.7 47.6 2.2 71.4c.1 5.2 2.2 7.7 6.6 9.8c21.3 10.2 42.5 20.7 64.5 31.5zM1097.8 560.9c1.6-.6 3.4-.9 4.7-1.9c19.9-16.2 39.7-32.6 59.6-48.8c2.3-1.9 3.2-3.6 2.6-6.7c-5.1-25.5-10-51-15.1-76.5c-.4-2-2.3-4.5-4.2-5.4c-21.3-10.6-42.7-21.1-64.2-31.3c-1.4-.7-4.3-.3-5.5 .7c-23 19.5-45.8 39.3-68.7 58.9c-2.2 1.8-2.7 3.6-2.1 6.4c4.3 21.9 8.6 43.8 12.7 65.7c.6 3.2 2 4.8 4.9 6.1c24.9 10.7 49.7 21.6 75.3 32.8zM1246.4 380c22.7 19.2 45.3 38.3 68 57.4c.9 .7 2.7 1.1 3.8 .7c20.9-6.7 41.8-13.5 62.6-20.6c1.4-.4 3-2.6 3-4.1c.6-10.4 .9-20.9 1-31.4c0-2.8-.3-5.7-1.2-8.3c-13.4-42.5-37.2-78.1-70.4-107.6c-2.7-2.4-5-2.8-8.4-1.6c-20.7 7.2-41.5 14.4-62.3 21.2c-3.6 1.2-4.5 2.9-4.4 6.4c.1 23.8 .3 47.6-.1 71.4c-.2 7.3 1.5 12.6 8.4 16.5zM1121 618.5c2.3 6.4 4.9 12.7 6.9 19.2c1.2 3.7 3.2 4.8 6.8 5.1c26.2 1.7 52.5 3.6 78.7 5.4c1.8 .1 4-.6 5.4-1.8c19.8-17 39.6-34.1 59.2-51.4c1.2-1.1 2-3.9 1.5-5.4c-5.4-16.5-11-32.9-16.8-49.2c-.5-1.7-2.5-3.6-4.2-4.1c-29.1-8.2-58.3-16.3-87.5-24.3c-1.7-.5-4.3 .1-5.7 1.2c-20.3 16.5-40.5 33.2-60.7 49.7c-2.4 2-3.1 3.5-1.9 6.7c6.2 16 12 32.1 18.3 48.9zM1370.6 545c11.8-24.3 19.2-49.8 22.1-76.7c1.7-15 3.5-30.1-6.9-43.4c-1.9-2.5-3-3.5-6.2-2.5c-20 6.8-40.1 13.3-60.1 20.1c-2.3 .7-4.7 2.7-5.8 4.8c-15.5 28.1-30.8 56.3-46 84.7c-1 2-1.3 5.1-.6 7.3c5.2 16 10.8 31.9 16.1 47.8c1 3.1 2.6 4 5.7 3.9c16.7-.5 33.3-.7 50-1.4c1.9 0 4.5-1.5 5.5-3.1c8.8-13.5 17.2-27.2 26.2-41.5zM976.6 427.9c-9.7-11.4-19.4-22.7-29-33.9c-.9 .3-1.2 .3-1.5 .5c-1.4 .8-2.7 2-4.2 2.6c-10.5 4.3-13.1 12.7-13.9 23.3c-3.9 49.9 5.9 96.5 30.8 140.1c4.2 7.4 10.9 10.7 17.6 14.9c12.4-15.2 24.6-30 36.5-44.9c1.1-1.3 1.2-3.8 .8-5.6c-4.2-22.2-8.5-44.5-12.8-66.7c-.3-1.5-1.1-3.1-2.1-4.3c-7.2-8.5-14.5-17-22.2-26zM1126.3 256.8c6.3-4.9 12.5-10 18.9-14.8c2.3-1.7 2.6-3.2 1.7-5.8c-2.3-6.2-4.3-12.6-6.4-18.9c-2.3-6.9-2.2-6.9-9.7-5.9c-28.7 3.6-55.7 12.3-81.1 26c-21.7 11.7-41 26.5-58 44.4c-3.2 3.5-1.7 6.6-.6 9.7c.4 1.2 3.2 2.2 5 2.3c24.1 1.9 48.1 3.7 72.2 5.3c2.2 .1 5-.8 6.7-2.1c17-13.2 33.9-26.5 51.3-40.2zM1224.2 664.5c-1.7-2.9-3.1-6-5.1-8.6c-1.1-1.5-3.1-3-4.9-3.2c-27-2-54-3.9-81.1-5.7c-1.5-.1-3.6 0-4.6 1c-6.9 7-13.7 14.3-20.8 21.9c1.6 .5 2.5 .9 3.4 1.1c21.8 4.9 43.8 6.7 65.9 4.6c15-1.5 29.8-4.8 44.6-7.5c1.2-.2 2-2 2.6-3.6zM963.1 318.6c-15.3 24.5-26.1 50.6-31.7 80.3c5.2-3.3 9.1-5.7 12.9-8.5c1.5-1.1 2.8-2.8 3.6-4.5c12.7-28.8 25.3-57.6 37.7-86.6c1.2-2.8 .7-6.4 1-9.7c-.7-.2-1.4-.5-2.2-.7c-6.9 9.7-13.9 19.4-21.3 29.7z"/>
<path fill="#29A64D" d="M923.8 535.3c10.9 22.8 22.9 45 39.2 65c-34.4 6.3-68.8 12.2-103.2 18.2c-47.2 8.2-94.5 16.4-141.7 24.5c-48.8 8.5-97.6 17-146.5 25.5c-35.2 6.1-70.4 12.3-105.7 18.4c-1.4 .2-2.9 .3-4.8 .5c-4-22-7.9-43.9-12-66.5c158.2-28.5 316.2-56.9 474.7-85.6z"/>
<path fill="#29A64D" d="M911.5 384.8c-1.1 9.9-3.3 19.8-4 29.8c-.9 11.5-.5 23.1-.6 34.7c-.1 3 .1 6 .1 9.4c-7.6 1.5-15.2 2.3-22.6 3.6c-73.9 13.2-147.7 26.5-221.6 39.8c-65.8 11.9-131.6 23.8-197.4 35.6c-3.9 .7-7.8 1.4-12.4 2.2c-4.2-23.2-8.4-46.4-12.6-70.1c8.8-1.6 17.3-3.2 25.7-4.7c39.6-7.3 79.1-14.6 118.6-21.8c37.9-6.8 75.8-13.5 113.7-20.3c35.9-6.4 71.9-12.9 107.8-19.4c32.5-5.8 65-11.7 97.5-17.6c2.4-.4 4.9-.8 7.8-1.2z"/>
<path fill="#FFFFFF" d="M1148.9 418.4c-21.6-10.6-42.8-21.1-64.1-31.3c-4.4-2.1-6.5-4.6-6.6-9.8c-.5-23.8-1.6-47.6-2.2-71.4c0-2 1.3-4.8 2.9-6.1c22.5-18 45.2-35.7 67.8-53.6c3.1-2.4 5.8-2.7 9.5-.7c24.7 13.5 49.5 26.7 74.4 39.9c2.5 1.4 3.5 2.9 3.5 5.8c-.1 26.5 0 53-.2 79.4c0 1.8-1.6 4.4-3.1 5.3c-25.3 14.2-50.6 28.2-76 42.1c-1.5 .8-3.7 .4-5.9 .4z"/>
<path fill="#FFFFFF" d="M1097.4 560.8c-25.2-11.1-50-22-74.9-32.7c-2.9-1.3-4.3-2.9-4.9-6.1c-4.1-21.9-8.4-43.8-12.7-65.7c-.6-2.8-.1-4.6 2.1-6.4c22.9-19.6 45.7-39.4 68.7-58.9c1.2-1 4.1-1.4 5.5-.7c21.5 10.2 42.9 20.7 64.2 31.3c1.9 .9 3.8 3.4 4.2 5.4c5.1 25.5 10 51 15.1 76.5c.6 3.1-.3 4.8-2.6 6.7c-19.9 16.2-39.7 32.6-59.6 48.8c-1.3 1-3.1 1.3-5.1 1.8z"/>
<path fill="#FFFFFF" d="M1246.2 379.8c-6.7-3.7-8.4-9-8.2-16.3c.4-23.8 .2-47.6 .1-71.4c-.1-3.5 .8-5.2 4.4-6.4c20.8-6.8 41.6-14 62.3-21.2c3.4-1.2 5.7-.8 8.4 1.6c33.2 29.5 57 65.1 70.4 107.6c.9 2.6 1.2 5.5 1.2 8.3c-.1 10.5-.4 21-1 31.4c0 1.5-1.6 3.7-3 4.1c-20.8 7.1-41.7 13.9-62.6 20.6c-1.1 .4-2.9 0-3.8-.7c-22.7-19.1-45.3-38.2-68.2-57.6z"/>
<path fill="#FFFFFF" d="M1120.8 618.1c-6.1-16.4-11.9-32.5-18.1-48.5c-1.2-3.2-.5-4.7 1.9-6.7c20.2-16.5 40.4-33.2 60.7-49.7c1.4-1.1 4-1.7 5.7-1.2c29.2 8 58.4 16.1 87.5 24.3c1.7 .5 3.7 2.4 4.2 4.1c5.8 16.3 11.4 32.7 16.8 49.2c.5 1.5-.3 4.3-1.5 5.4c-19.6 17.3-39.4 34.4-59.2 51.4c-1.4 1.2-3.6 1.9-5.4 1.8c-26.2-1.8-52.5-3.7-78.7-5.4c-3.6-.3-5.6-1.4-6.8-5.1c-2-6.5-4.6-12.8-7.1-19.6z"/>
<path fill="#FFFFFF" d="M1370.4 545.4c-8.8 13.9-17.2 27.6-26 41.1c-1 1.6-3.6 3.1-5.5 3.1c-16.7 .7-33.3 .9-50 1.4c-3.1 .1-4.7-.8-5.7-3.9c-5.3-15.9-10.9-31.8-16.1-47.8c-.7-2.2-.4-5.3 .6-7.3c15.2-28.4 30.5-56.6 46-84.7c1.1-2.1 3.5-4.1 5.8-4.8c20-6.8 40.1-13.3 60.1-20.1c3.2-1 4.3 0 6.2 2.5c10.4 13.3 8.6 28.4 6.9 43.4c-2.9 26.9-10.3 52.4-22.3 77.1z"/>
<path fill="#FFFFFF" d="M976.9 428.1c7.4 8.8 14.7 17.3 21.9 25.8c1 1.2 1.8 2.8 2.1 4.3c4.3 22.2 8.6 44.5 12.8 66.7c.4 1.8 .3 4.3-.8 5.6c-11.9 14.9-24.1 29.7-36.5 44.9c-6.7-4.2-13.4-7.5-17.6-14.9c-24.9-43.6-34.7-90.2-30.8-140.1c.8-10.6 3.4-19 13.9-23.3c1.5-.6 2.8-1.8 4.2-2.6c.3-.2 .6-.2 1.5-.5c9.6 11.2 19.3 22.5 29.3 34.1z"/>
<path fill="#FFFFFF" d="M1126 257c-17.1 13.5-34 26.8-51 40c-1.7 1.3-4.5 2.2-6.7 2.1c-24.1-1.6-48.1-3.4-72.2-5.3c-1.8-.1-4.6-1.1-5-2.3c-1.1-3.1-2.6-6.2 .6-9.7c17-17.9 36.3-32.7 58-44.4c25.4-13.7 52.4-22.4 81.1-26c7.5-1 7.4-1 9.7 5.9c2.1 6.3 4.1 12.7 6.4 18.9c.9 2.6 .6 4.1-1.7 5.8c-6.4 4.8-12.6 9.9-19.2 15z"/>
<path fill="#FFFFFF" d="M1224.4 664.8c-.8 1.3-1.6 3.1-2.8 3.3c-14.8 2.7-29.6 6-44.6 7.5c-22.1 2.1-44.1 .3-65.9-4.6c-.9-.2-1.8-.6-3.4-1.1c7.1-7.6 13.9-14.9 20.8-21.9c1-1 3.1-1.1 4.6-1c27.1 1.8 54.1 3.7 81.1 5.7c1.8 .2 3.8 1.7 4.9 3.2c2 2.6 3.4 5.7 5.3 8.9z"/>
<path fill="#FFFFFF" d="M963.3 318.3c7.2-10 14.2-19.7 21.1-29.4c.8 .2 1.5 .5 2.2 .7c-.3 3.3 .2 6.9-1 9.7c-12.4 29-25 57.8-37.7 86.6c-.8 1.7-2.1 3.4-3.6 4.5c-3.8 2.8-7.7 5.2-12.9 8.5c5.6-29.7 16.4-55.8 31.9-80.6z"/>
<circle cx="1161" cy="440.5" r="243" fill="none" stroke="#29A64D" stroke-width="24"/>
</g>
<g id="wordmark">
<path fill="#29A64D" d="M1173.8 1261.9c-7.7 8.4-15.3 16.6-23 24.9c36.8 46.5 73.5 92.8 110.7 139.8c-2.1 .1-3.3 .2-4.5 .2c-19.8 .1-39.7 0-59.5 .1c-2.9 0-4.8-.8-6.7-3.2c-25.1-30.9-50.3-61.7-75.4-92.5c-.9-1.1-1.7-2.1-3.1-3.6c-1.5 1.6-2.9 3.1-4.3 4.6c-8.9 9.3-17.9 18.4-26.6 27.9c-1.7 1.8-2.9 4.9-2.9 7.4c-.2 17.8-.1 35.6-.1 53.4c0 1.8 0 3.6 0 5.7c-19.5 0-38.4 0-57.8 0c0-84 0-168.1 0-252.3c19.2 0 38.2 0 57.8 0c0 38.9 0 77.6 0 117.8c2.9-3 4.8-5 6.6-7c34.1-35.9 68.2-71.8 102.1-107.8c2.3-2.3 4.4-3.4 7.8-3.4c19.8 .2 39.6 .1 60.5 .1c-27.5 29.7-54.4 58.6-81.6 87.9z"/>
<path fill="#29A64D" d="M1756.1 1189c0-10.1 0-19.8 0-29.8c18.9 0 37.4 0 56.2 0c0 89 0 177.9 0 267.3c-17.6 0-35.2 0-53.3 0c0-6.8 0-13.7 0-21.3c-1.2 .8-1.8 1-2.2 1.4c-16 17.5-36.7 23.4-59.5 23.1c-19.5-.1-37.9-4.8-54.4-15.6c-21.1-13.9-34-33.5-39.2-58c-5.4-25.4-4.4-50.6 7.3-74.1c18.2-36.2 49-52.1 88.6-52.1c21 0 39.7 6 54.7 21.4c.3 .3 .8 .4 1.8 .9c0-21.2 0-42 0-63.2zM1757 1322.9c-.4-2.4-.7-4.7-1.1-7c-3.2-18.9-17.7-34.4-35.9-38.5c-20.9-4.7-41.2 2.6-52.6 18.8c-8.3 11.8-10.1 25.1-9.3 39c1.7 30.4 24.1 48.2 48.4 48.3c24 .1 43.5-14 48.7-37.4c1.6-7.2 1.2-14.9 1.8-23.2z"/>
<path fill="#FFFFFF" d="M154.7 1328c0-51.3 0-102.1 0-153.1c1.3-.1 2.2-.4 3.2-.4c39.4 .2 78.9-.4 118.4 .8c27.3 .8 52.8 8.9 73 28.7c19.9 19.4 26.3 43.8 24.2 70.7c-3.1 40.4-29.2 69.8-73.6 79c-12.9 2.7-26.4 3.2-39.7 3.7c-15.4 .6-30.9 .1-46.9 .1c0 23.3 0 46.1 0 69.4c-19.6 0-38.8 0-58.6 0c0-32.9 0-65.6 0-98.9zM282.1 1224.2c-2.6-.4-5.3-1.2-7.9-1.2c-16.3-.4-32.6-.7-48.9-1c-3.9-.1-7.9 0-11.9 0c0 29.6 0 58.6 0 88.5c20.7-.5 41.2-.5 61.6-1.8c11.4-.7 22-5.2 29.9-14.1c20.8-23.4 9.1-60.5-22.8-70.4z"/>
<path fill="#FFFFFF" d="M845.8 1371c0 18.8 0 37.1 0 55.8c-18.8 0-37.4 0-56.2 0c0-89 0-178 0-267.3c18.5 0 37 0 56 0c0 30.7 0 61.5 0 92c8.5-4.9 16.1-10.7 24.7-14c30.5-11.5 60.3-11 88 8.2c16.1 11.2 24.3 27.5 27.5 46.3c1.3 7.5 2.1 15.2 2.1 22.8c.2 36.4 .1 72.7 .1 109c0 1 0 1.9 0 3.1c-18.8 0-37.2 0-56.2 0c0-1.7 0-3.5 0-5.3c0-31.3 .1-62.6-.1-93.9c0-6.1-.5-12.4-1.6-18.4c-3.5-19-15.3-29.1-34.7-30.2c-28.7-1.6-48.3 16.2-49.3 45.4c-.6 15.3-.2 30.7-.3 46.5z"/>
<path fill="#29A64D" d="M1513.9 1362c-.3-16.3 .1-32.2-.9-47.9c-1.6-23.2-16.5-36.1-39.8-35.5c-27.6 .8-44.8 18.3-45.1 47.2c-.5 31.6-.2 63.3-.2 94.9c0 1.8 0 3.6 0 5.8c-18.8 0-37.2 0-56.1 0c0-64.4 0-128.9 0-193.7c17.6 0 35.2 0 53.2 0c0 7.1 0 14.2 0 22.3c3.2-2.9 5.5-5.2 8.1-7.2c20.5-16.2 44.2-19.7 69.3-17.4c12.8 1.2 24.6 5.6 35.3 12.7c19.6 12.9 28.6 32 31.1 54.4c1.2 9.9 1.2 20 1.2 29.9c.2 31.2 .1 62.4 .1 93.5c0 1.8 0 3.6 0 5.6c-18.9 0-37.3 0-56.2 0c0-21.5 0-42.8 0-64.6z"/>
<path fill="#FFFFFF" d="M666.2 1284.1c-17.4 11.6-23.2 28.4-22.7 48c.4 17.3 5.9 32.3 20.7 42.7c19.7 13.9 54.5 14 71.4-13.6c.7-1.3 1.6-2.4 2.6-3.8c14.5 7.8 28.8 15.6 43.4 23.5c-5.3 12.1-13.1 21.8-23.3 29.6c-18 13.7-38.6 19.3-61.1 19.6c-26.3 .4-50.8-5.4-72.2-21.5c-28.6-21.4-40.4-50.6-38.4-85.8c2.8-46.5 35.5-80.4 80.7-89.7c27.3-5.6 54-3.9 79.3 9c15.9 8.2 27.5 20.6 35 37.4c-14.4 7.8-28.7 15.5-43.5 23.5c-8.3-13.9-19.4-24-36.2-26.1c-12.6-1.6-24.5 .1-35.7 7.2z"/>
<path fill="#FFFFFF" d="M530.8 1190c2 0 3.5 0 5.4 0c0 15.6 0 31 0 46.9c16.4 0 32.3 0 48.4 0c0 14.8 0 29.1 0 43.9c-15.8 0-31.7 0-48.1 0c0 1.9 0 3.4 0 4.8c.1 26 0 52 .5 78c.2 12.8 8.3 20.5 20.9 21.6c9.1 .8 17.5-1.4 25.5-6.9c4.9 12.9 9.8 25.3 14.3 37.9c.4 .9-1.3 3.1-2.5 3.9c-9.2 5.9-19.6 8.5-30.2 9.5c-17.3 1.7-34.6 .7-50.8-7c-20.5-9.7-31.5-26.8-32.9-48.8c-1.5-24.2-.9-48.6-1.2-72.9c-.1-6.5 0-13 0-20c-10 0-19.7 0-29.7 0c0-14.7 0-28.9 0-43.5c9.7 0 19.3 0 29.5 0c0-15.9 0-31.4 0-47.4c17.2 0 33.8 0 50.9 0z"/>
<path fill="#29A64D" d="M1271.3 1301c0-23 0-45.4 0-68.2c19 0 37.5 0 56.3 0c0 64.6 0 129 0 193.7c-18.7 0-37.3 0-56.3 0c0-41.8 0-83.4 0-125.5z"/>
<path fill="#FFFFFF" d="M428 1233c5.6 0 10.8 0 16.1 0c0 64.8 0 129.2 0 193.9c-18.6 0-37.1 0-55.9 0c0-64.5 0-128.9 0-193.9c13.1 0 26.2 0 39.8 0z"/>
<path fill="#FFFFFF" d="M400.2 1202.9c-14.4-7-21-19.5-18.4-34.4c2.3-13.3 14.2-23.8 29.1-25.2c13.8-1.3 26.4 1.7 35 13.5c12 16.6 3 41.4-17 47.2c-9.4 2.7-19 3.1-28.7-1.1z"/>
<path fill="#29A64D" d="M1334.1 1168c2.5 22.1-13.1 38-35.9 37.3c-15.5-.4-27.7-8.5-31.9-21c-6.4-19.3 6.2-39.1 26.4-41.3c13.1-1.4 25.5 .5 34.5 11.1c3.2 3.7 4.6 9 6.9 13.9z"/>
</g>
<g id="tagline">
<path fill="#29A64D" d="M1488.9 1542.7c-5.4 .9-10.7 1.3-16.5 1.7c0-23.9 0-47.1 0-70.7c5.4 0 10.8 0 16.6 0c0 23 0 45.8-.1 69z"/>
<path fill="#29A64D" d="M809.7 1498c0-6.3 0-12.1 0-18.3c5.5 0 10.5 0 16 0c0 23.3 0 46.6 0 70.1c-5.2 0-10.3 0-16 0c0-17.2 0-34.2 0-51.8z"/>
<path fill="#FFFFFF" d="M506.4 1520.6c1.7 2.7 3.2 5 5.5 8.7c0-12.1 0-22.9 0-34c2-.1 3.4-.2 5-.3c0 14.7 0 29.1 0 43.6c-3.4 1.3-5.4 0-7.2-3c-6.4-10.9-13.1-21.5-20.5-33.5c0 13.1 0 24.8 0 36.7c-1.9 0-3.3 0-4.9 0c0-14.5 0-28.9 0-43.5c4-1.1 6.6 0 8.7 3.8c4.1 7.3 8.7 14.2 13.4 21.5z"/>
<path fill="#FFFFFF" d="M1136.9 1519c0-8.1 0-15.8 0-23.5c4.3-1.5 6.7 0 8.9 3.7c5.8 9.8 12 19.3 19.1 28.7c0-10.8 0-21.7 0-32.7c1.9 0 3.3 0 4.9 0c0 14.6 0 29.1 0 43.4c-3.5 1.2-5.5 .1-7.4-3c-6.3-10.9-13-21.5-20.4-33.5c0 13.1 0 24.6 0 36.5c-1.7 .2-3.1 .3-5.1 .5c0-6.7 0-13.2 0-20.1z"/>
<path fill="#FFFFFF" d="M1057.8 1516c0 7.5 0 14.5 0 21.5c0 .3-.2 .6-.4 1.2c-1.3 0-2.7 0-4.3 0c0-14.4 0-28.8 0-43.3c4.3-1.6 6.6 .3 8.8 3.9c5.8 9.7 11.9 19.2 18.7 30.1c0-12.2 0-23 0-34.1c2-.2 3.4-.3 5.1-.4c0 14.7 0 29.1 0 43.8c-3.4 1.1-5.5 0-7.4-3.3c-6.3-10.7-12.9-21.3-20.5-31.8c0 4 0 7.9 0 12.4z"/>
<path fill="#FFFFFF" d="M321 1511.1c4.3-15.5 20.3-21.8 31.3-12.7c1.4 1.2 2.5 3 3.7 4.4c-2.4 2.7-3.7 2.4-5.9 .1c-6.9-7.2-20.5-4.1-22.9 5.6c-1.3 5.1-1.2 10.9-.3 16.2c1.2 7.4 7.9 11.3 15.3 10.1c7.2-1.2 9.9-5.9 8.6-15.6c-1.9 0-3.9 0-5.8 0c-1.8 0-3.6 0-5.7 0c0-1.5 0-2.7 0-4c5.6 0 11 0 16.7 0c0 7.9 0 15.7 0 23.6c-1.5 0-2.7 0-4.1 0c-.2-1.8-.4-3.4-.5-4.4c-3.4 1.6-6.5 3.9-10 4.6c-10.7 1.8-19.3-5-20.4-16.1c-.4-3.7-.1-7.6 0-11.8z"/>
<path fill="#FFFFFF" d="M171.4 1538.7c-10.1-3.6-14.4-10.5-14.3-22.3c0-10.3 4.5-17.6 12.6-20.7c10.9-4.1 22.7 2 25.3 13.3c.6 2.4 .9 4.9 1 7.4c.3 16.1-8.3 24.1-24.6 22.3zM189.2 1507.6c-3-6.4-7.8-9.2-14.7-8.3c-6.2 .8-10.4 4.7-11.3 11.4c-.5 4.2-.5 8.6 0 12.9c1 7 6.1 11.1 13.1 11.2c7.2 .2 12.7-4 13.5-11.1c.6-5.1-.1-10.2-.6-16.1z"/>
<path fill="#FFFFFF" d="M975.1 1496.9c15-6.7 28.7 2 29 17.8c0 2.3 .1 4.7-.1 7c-1.2 10.7-8.8 17.7-19.3 17.6c-10.6 0-17.8-7-18.9-17.9c-1-9.6 .2-18.4 9.3-24.5zM975.8 1531.8c9 5.5 18.5 3.2 21.6-5.4c2.2-6.3 2.2-12.7-.1-19c-1.8-5.3-6-7.8-11.4-8.2c-5.3-.3-9.8 1.3-12.6 6.2c-4 6.7-3 19.5 2.5 26.4z"/>
<path fill="#FFFFFF" d="M244.9 1524c0-9.8 0-19.1 0-28.8c6.4 0 12.7-.4 18.9 .1c5.5 .4 8.8 4.1 9.7 9.2c1 5.8-1 9.4-6.3 12.4c2.8 7.2 5.7 14.3 8.5 21.4c-4.1 1.6-5.9 .5-6.7-3c-.7-2.8-1.7-5.4-2.6-8.1c-2.3-7.4-3.5-8.2-11.4-8.2c-1.5 0-3 0-4.9 0c0 6.6 0 13 0 19.8c-1.8 .1-3.2 .2-5.2 .2c0-5 0-9.7 0-15zM267.7 1502.9c-5.1-5.7-11.6-2.7-17.4-3.6c0 5.6 0 10.3 0 15.3c3.2 0 6 .1 8.8 0c8-.1 10.3-3 8.6-11.7z"/>
<path fill="#FFFFFF" d="M1704.6 1534.7c-.7 2-1.3 3.5-1.8 5.2c-1.6 0-3.1 0-4.8 0c0-.6-.1-1.1 .1-1.4c4.2-12.3 8.7-24.4 12.5-36.8c1.5-4.9 3.7-7 9.2-5.2c4.8 14 9.8 28.4 14.9 43.2c-1.8 .1-3.3 .3-5.2 .4c-1.3-4-2.7-7.8-4.2-12.1c-5.4 0-11-.5-16.3 .3c-1.7 .3-2.9 3.9-4.4 6.4zM1720.4 1513c-1.3-3.8-2.5-7.5-3.8-11.3c-.4 0-.7 0-1.1 0c-2.3 7.2-4.7 14.5-7.1 21.8c5.5 0 10.3 0 15.4 0c-1.1-3.5-2.1-6.6-3.4-10.5z"/>
<path fill="#FFFFFF" d="M636.8 1494.6c3.6 1 6.8 1.6 9.8 2.9c3 1.4 3.2 3.5 1.7 4.6c-5.6-1.1-10.1-2.5-14.6-2.7c-3.5-.2-6.5 1.6-6.8 5.8c-.2 4 1.8 6.3 5.5 7.3c3.2 .9 6.5 1.5 9.6 2.5c6.8 2.3 10 7.4 9.1 14.1c-.9 6-5.4 9.7-12.3 10.2c-5.4 .3-10.6-.1-15.1-3.8c-2.9-2.5-4-4.8 .1-7.5c4.1 5.6 9.5 8 16.5 6.2c3.5-.8 5.4-3 5.7-6.6c.3-3.6-1.2-6.2-4.6-7.4c-3.5-1.3-7.3-2-10.9-3.3c-6.5-2.4-9.4-6.9-8.6-12.9c.7-5.1 5.5-8.7 12-9.3c.8 0 1.7 0 2.9-.1z"/>
<path fill="#FFFFFF" d="M432.6 1523.2c1.9 5.4 3.6 10.4 5.3 15.4c-4.3 1.5-5.8-.5-6.9-4.1c-2.3-7.5-2.4-7.5-10.2-7.5c-3.5 0-7 0-10.6 0c-1.5 4.1-2.8 7.9-4.2 11.9c-1.7 0-3.2 0-5.1 0c2.5-7.6 5-14.9 7.5-22.2c2.5-7.2 5-14.4 7.5-21.6c2.5 0 4.6 0 7 0c3.2 9.3 6.4 18.5 9.7 28.1zM421.7 1505.9c-.7-1.9-1.4-3.7-2.4-6.6c-2.8 8.3-5.2 15.7-7.7 23.2c5.5 0 10.3 0 15.5 0c-1.8-5.6-3.5-10.7-5.4-16.6z"/>
<path fill="#FFFFFF" d="M891.6 1522.9c2.8 9.6 9.2 13.9 17.5 11.1c3.4-1.1 6.1-4.4 9.8-7.4c2.9 .7 3 .8 1.2 4.5c-4 8.3-15.8 11.3-24.7 5.8c-9.3-5.6-10.4-14.8-9.3-24.5c.9-8.3 5.3-14.2 13.4-16.9c8.9-2.9 17.3 .2 21.5 8.1c-1.1 .8-2.2 1.7-3.3 2.5c-5-6.3-10.3-8.2-17.1-6c-6.6 2-8.6 7.4-9.3 13.4c-.3 3 .1 6 .3 9.4z"/>
<path fill="#FFFFFF" d="M1299.3 1507.8c-.5 4.8-1.3 9.3-1.1 13.7c.4 7.2 4.5 11.6 11 12.9c7 1.4 10.9-.7 15.1-8.2c4.3 1.2 4.4 1.4 2.6 5c-4.1 8.2-16 11.1-24.8 5.7c-8.3-5-9.9-13.1-9.4-22.1c.4-9.1 4.2-15.9 13.1-19.1c7-2.5 15.9-.6 19.9 4.2c1.9 2.3 2.9 4.6-1.1 5.9c-9.5-9.4-18.9-8.8-25.3 2z"/>
<path fill="#FFFFFF" d="M1564.9 1496c2.8 .2 5.1 .1 7.4 .6c6.8 1.2 10.8 6.3 10.5 12.9c-.3 7-4.2 11.8-11.1 12.5c-4.3 .4-8.6 .1-13.4 .1c0 6.2 0 11.8 0 17.6c-1.8 .2-3.2 .3-5 .4c0-14.6 0-29 0-44.1c3.6 0 7.4 0 11.6 0zM1577.1 1512c1.3-9.4-2.3-13.5-19-10.8c0 2.8 0 5.6 0 8.4c0 2.7 0 5.5 0 8.4c4 0 7.3 0 10.6 0c3.9 0 6.8-1.3 8.4-6z"/>
<path fill="#FFFFFF" d="M1233 1539c-4.1 0-7.8 0-11.8 0c0-14.6 0-28.9 0-43.7c8.4 0 17 0 25.8 0c1.3 2.7 .6 3.9-2.8 3.9c-5.9-.2-11.9-.1-18-.1c0 5.1 0 9.7 0 14.7c6 0 12.1 0 18.5 0c.1 1.6 .2 2.7 .2 4.2c-6.3 0-12.2 0-18.6 0c0 5.6 0 11 0 16.8c7.1 0 14.2 0 21.5 0c0 1.5 0 2.6 0 4.2c-4.7 0-9.5 0-14.8 0z"/>
<path fill="#FFFFFF" d="M710 1495c5.3 0 10.1 0 15 0c1 2.8 .7 4.2-2.6 4.2c-5.9-.2-11.9-.1-18.1-.1c0 5 0 9.7 0 14.9c6.1 0 12.2 0 18.5 0c0 1.4 0 2.5 0 4c-6.1 0-12.2 0-18.5 0c0 5.7 0 10.9 0 16.9c6.1 0 12.3 .1 18.6-.1c3.2-.1 3.6 1.2 2.8 4c-8.8 0-17.6 0-26.5 0c0-14.5 0-28.9 0-43.8c3.4 0 6.9 0 10.8 0z"/>
<path fill="#FFFFFF" d="M1790.1 1540c-1.4-1-3-2.2-2.9-3c1.7-11.4-2.8-20.7-8.7-29.8c-2.2-3.4-4-7.1-6-10.8c3.6-1.2 5.6-.1 7.2 2.9c3 5.7 6.3 11.3 9.7 17.1c6.9-6 6.7-17.6 16-21.1c.5 .4 1 .8 1.5 1.2c-3.5 6.2-6.5 12.8-10.7 18.6c-4.4 6.3-4.1 13-4.2 20c0 1.6-.9 3.3-1.9 4.9z"/>
<path fill="#FFFFFF" d="M1635.3 1525c0 3.8 0 7.1 0 10.7c7.1 0 13.7 0 20.6 0c0 1.6 0 2.8 0 4.2c-8.4 0-16.7 0-25.3 0c0-14.5 0-28.9 0-43.6c1.4-.1 2.8-.2 4.7-.4c0 9.8 0 19.2 0 29.1z"/>
<path fill="#FFFFFF" d="M1388.4 1526c0 4.5 0 8.4 0 12.7c-1.6 .1-3 .2-4.9 .3c0-13.3 0-26.2 0-39.4c-4.6 0-8.7 0-13.1 0c-.2-1.5-.4-2.8-.6-4.3c10.7 0 21.1 0 31.9 0c0 1.2 0 2.5 0 4.2c-4.4 0-8.5 0-13.3 0c0 8.8 0 17.4 0 26.5z"/>
<path fill="#FFFFFF" d="M573.1 1529c0 3.4 0 6.4 0 9.7c-1.6 .2-3 .2-4.8 .4c0-14.7 0-29.1 0-43.9c1.4-.1 2.8-.1 4.8-.3c0 11.4 0 22.5 0 34.1z"/>
</g>
</svg>